<svg width="120" height="120" viewBox="0 0 120 120" fill="none" xmlns="http://www.w3.org/2000/svg">
  <rect width="120" height="120" fill="white"/>
  <path d="M18 8H102C107.523 8 112 12.4772 112 18V102C112 107.523 107.523 112 102 112H18C12.4772 112 8 107.523 8 102V18C8 12.4772 12.4772 8 18 8Z" fill="black"/>
  <path d="M53 36C45 29 32 31 26 43C18 59 24 78 38 84C43 86 49 85 54 80" stroke="white" stroke-width="12" stroke-linecap="round" stroke-linejoin="round"/>
  <path d="M61 35L70 84L80 58L90 84L101 35" stroke="white" stroke-width="10" stroke-linecap="round" stroke-linejoin="round"/>
</svg>